<svg width="64" height="28" viewBox="0 0 64 28" fill="none" xmlns="http://www.w3.org/2000/svg">
<path d="M0 2V26H2V28H62V26H64V2H62V0H2V2H0Z" fill="#C03028"/>
<rect x="2" width="60" height="2" fill="#F08030"/>
<rect y="2" width="2" height="2" fill="#F08030"/>
<rect x="62" y="2" width="2" height="2" fill="#F08030"/>
<rect x="62" y="28" width="60" height="2" transform="rotate(180 62 28)" fill="black" fill-opacity="0.5"/>
<rect x="64" y="26" width="2" height="2" transform="rotate(180 64 26)" fill="black" fill-opacity="0.5"/>
<rect x="2" y="26" width="2" height="2" transform="rotate(180 2 26)" fill="black" fill-opacity="0.5"/>
<g filter="url(#filter0_ddd_19_917)">
<path d="M11 6H13V20H11V6Z" fill="white"/>
<path d="M13 6H19V8H13V6Z" fill="white"/>
<path d="M12 12H17V14H12V12Z" fill="white"/>
<path d="M51 8H53V20H51V8Z" fill="white"/>
<path d="M49 6H55V8H49V6Z" fill="white"/>
<path d="M23 6H25V20H23V6Z" fill="white"/>
<path d="M23 6H27V8H23V6Z" fill="white"/>
<path d="M21 6H25V8H21V6Z" fill="white"/>
<path d="M21 18H25V20H21V18Z" fill="white"/>
<path d="M23 18H27V20H23V18Z" fill="white"/>
<path d="M29 8H31V18H29V8Z" fill="white"/>
<path d="M31 18H35V20H31V18Z" fill="white"/>
<path d="M31 6H35V8H31V6Z" fill="white"/>
<path d="M33 12H37V14H33V12Z" fill="white"/>
<path d="M35 8H37V10H35V8Z" fill="white"/>
<path d="M35 14H37V18H35V14Z" fill="white"/>
<path d="M39 6H41V20H39V6Z" fill="white"/>
<path d="M45 6H47V20H45V6Z" fill="white"/>
<path d="M40 12H46V14H40V12Z" fill="white"/>
</g>
<defs>
<filter id="filter0_ddd_19_917" x="11" y="6" width="46" height="16" filterUnits="userSpaceOnUse" color-interpolation-filters="sRGB">
<feFlood flood-opacity="0" result="BackgroundImageFix"/>
<feColorMatrix in="SourceAlpha" type="matrix" values="0 0 0 0 0 0 0 0 0 0 0 0 0 0 0 0 0 0 127 0" result="hardAlpha"/>
<feOffset dy="2"/>
<feComposite in2="hardAlpha" operator="out"/>
<feColorMatrix type="matrix" values="0 0 0 0 0.501961 0 0 0 0 0.470588 0 0 0 0 0.439216 0 0 0 1 0"/>
<feBlend mode="normal" in2="BackgroundImageFix" result="effect1_dropShadow_19_917"/>
<feColorMatrix in="SourceAlpha" type="matrix" values="0 0 0 0 0 0 0 0 0 0 0 0 0 0 0 0 0 0 127 0" result="hardAlpha"/>
<feOffset dx="2"/>
<feComposite in2="hardAlpha" operator="out"/>
<feColorMatrix type="matrix" values="0 0 0 0 0.501961 0 0 0 0 0.470588 0 0 0 0 0.439216 0 0 0 1 0"/>
<feBlend mode="normal" in2="effect1_dropShadow_19_917" result="effect2_dropShadow_19_917"/>
<feColorMatrix in="SourceAlpha" type="matrix" values="0 0 0 0 0 0 0 0 0 0 0 0 0 0 0 0 0 0 127 0" result="hardAlpha"/>
<feOffset dx="2" dy="2"/>
<feComposite in2="hardAlpha" operator="out"/>
<feColorMatrix type="matrix" values="0 0 0 0 0.501961 0 0 0 0 0.470588 0 0 0 0 0.439216 0 0 0 1 0"/>
<feBlend mode="normal" in2="effect2_dropShadow_19_917" result="effect3_dropShadow_19_917"/>
<feBlend mode="normal" in="SourceGraphic" in2="effect3_dropShadow_19_917" result="shape"/>
</filter>
</defs>
</svg>
