<svg width="64" height="28" viewBox="0 0 64 28" fill="none" xmlns="http://www.w3.org/2000/svg">
<path d="M0 2V26H2V28H62V26H64V2H62V0H2V2H0Z" fill="#98D8D8"/>
<g style="mix-blend-mode:hard-light">
<rect x="2" width="60" height="2" fill="white" fill-opacity="0.5"/>
<rect y="2" width="2" height="2" fill="white" fill-opacity="0.5"/>
<rect x="62" y="2" width="2" height="2" fill="white" fill-opacity="0.5"/>
</g>
<rect x="62" y="28" width="60" height="2" transform="rotate(180 62 28)" fill="black" fill-opacity="0.5"/>
<rect x="64" y="26" width="2" height="2" transform="rotate(180 64 26)" fill="black" fill-opacity="0.5"/>
<rect x="2" y="26" width="2" height="2" transform="rotate(180 2 26)" fill="black" fill-opacity="0.5"/>
<g filter="url(#filter0_ddd_19_918)">
<path d="M37 12H43V14H37V12Z" fill="white"/>
<path d="M39 8L39 18H37L37 8L39 8Z" fill="white"/>
<path d="M37 18H45V20H37L37 18Z" fill="white"/>
<path d="M37 6H45V8L37 8L37 6Z" fill="white"/>
<path d="M21 6H23V20H21V6Z" fill="white"/>
<path d="M21 6H25V8H21V6Z" fill="white"/>
<path d="M19 6H23V8H19V6Z" fill="white"/>
<path d="M19 18H23V20H19V18Z" fill="white"/>
<path d="M21 18H25V20H21V18Z" fill="white"/>
<path d="M27 8H29V18H27V8Z" fill="white"/>
<path d="M29 18H33V20H29V18Z" fill="white"/>
<path d="M29 6H33V8H29V6Z" fill="white"/>
<path d="M33 14H35V18H33V14Z" fill="white"/>
<path d="M33 8H35V10H33V8Z" fill="white"/>
</g>
<defs>
<filter id="filter0_ddd_19_918" x="19" y="6" width="28" height="16" filterUnits="userSpaceOnUse" color-interpolation-filters="sRGB">
<feFlood flood-opacity="0" result="BackgroundImageFix"/>
<feColorMatrix in="SourceAlpha" type="matrix" values="0 0 0 0 0 0 0 0 0 0 0 0 0 0 0 0 0 0 127 0" result="hardAlpha"/>
<feOffset dy="2"/>
<feComposite in2="hardAlpha" operator="out"/>
<feColorMatrix type="matrix" values="0 0 0 0 0.501961 0 0 0 0 0.470588 0 0 0 0 0.439216 0 0 0 1 0"/>
<feBlend mode="normal" in2="BackgroundImageFix" result="effect1_dropShadow_19_918"/>
<feColorMatrix in="SourceAlpha" type="matrix" values="0 0 0 0 0 0 0 0 0 0 0 0 0 0 0 0 0 0 127 0" result="hardAlpha"/>
<feOffset dx="2"/>
<feComposite in2="hardAlpha" operator="out"/>
<feColorMatrix type="matrix" values="0 0 0 0 0.501961 0 0 0 0 0.470588 0 0 0 0 0.439216 0 0 0 1 0"/>
<feBlend mode="normal" in2="effect1_dropShadow_19_918" result="effect2_dropShadow_19_918"/>
<feColorMatrix in="SourceAlpha" type="matrix" values="0 0 0 0 0 0 0 0 0 0 0 0 0 0 0 0 0 0 127 0" result="hardAlpha"/>
<feOffset dx="2" dy="2"/>
<feComposite in2="hardAlpha" operator="out"/>
<feColorMatrix type="matrix" values="0 0 0 0 0.501961 0 0 0 0 0.470588 0 0 0 0 0.439216 0 0 0 1 0"/>
<feBlend mode="normal" in2="effect2_dropShadow_19_918" result="effect3_dropShadow_19_918"/>
<feBlend mode="normal" in="SourceGraphic" in2="effect3_dropShadow_19_918" result="shape"/>
</filter>
</defs>
</svg>
