<svg width="64" height="28" viewBox="0 0 64 28" fill="none" xmlns="http://www.w3.org/2000/svg">
<path d="M0 2V26H2V28H62V26H64V2H62V0H2V2H0Z" fill="#B8A038"/>
<rect x="2" width="60" height="2" fill="#E0C068"/>
<rect y="2" width="2" height="2" fill="#E0C068"/>
<rect x="62" y="2" width="2" height="2" fill="#E0C068"/>
<rect x="62" y="28" width="60" height="2" transform="rotate(180 62 28)" fill="black" fill-opacity="0.5"/>
<rect x="64" y="26" width="2" height="2" transform="rotate(180 64 26)" fill="black" fill-opacity="0.5"/>
<rect x="2" y="26" width="2" height="2" transform="rotate(180 2 26)" fill="black" fill-opacity="0.5"/>
<g filter="url(#filter0_ddd_19_911)">
<path d="M13 6H15V20H13V6Z" fill="white"/>
<path d="M19 14H21V20H19V14Z" fill="white"/>
<path d="M19 8H21V12H19V8Z" fill="white"/>
<path d="M15 6H19V8H15V6Z" fill="white"/>
<path d="M15 12H19V14H15V12Z" fill="white"/>
<path d="M23 8H25V18H23V8Z" fill="white"/>
<path d="M25 18H29V20H25V18Z" fill="white"/>
<path d="M25 6H29V8H25V6Z" fill="white"/>
<path d="M29 8H31V18H29V8Z" fill="white"/>
<path d="M33 8H35V18H33V8Z" fill="white"/>
<path d="M35 18H39V20H35V18Z" fill="white"/>
<path d="M35 6H39V8H35V6Z" fill="white"/>
<path d="M39 14H41V18H39V14Z" fill="white"/>
<path d="M39 8H41V10H39V8Z" fill="white"/>
<path d="M43 6H45V20H43V6Z" fill="white"/>
<path d="M45 12H47V14H45V12Z" fill="white"/>
<path d="M47 10H49V12H47V10Z" fill="white"/>
<path d="M47 14H49V16H47V14Z" fill="white"/>
<path d="M49 16H51V20H49V16Z" fill="white"/>
<path d="M49 6H51V10H49V6Z" fill="white"/>
</g>
<defs>
<filter id="filter0_ddd_19_911" x="13" y="6" width="40" height="16" filterUnits="userSpaceOnUse" color-interpolation-filters="sRGB">
<feFlood flood-opacity="0" result="BackgroundImageFix"/>
<feColorMatrix in="SourceAlpha" type="matrix" values="0 0 0 0 0 0 0 0 0 0 0 0 0 0 0 0 0 0 127 0" result="hardAlpha"/>
<feOffset dy="2"/>
<feComposite in2="hardAlpha" operator="out"/>
<feColorMatrix type="matrix" values="0 0 0 0 0.501961 0 0 0 0 0.470588 0 0 0 0 0.439216 0 0 0 1 0"/>
<feBlend mode="normal" in2="BackgroundImageFix" result="effect1_dropShadow_19_911"/>
<feColorMatrix in="SourceAlpha" type="matrix" values="0 0 0 0 0 0 0 0 0 0 0 0 0 0 0 0 0 0 127 0" result="hardAlpha"/>
<feOffset dx="2"/>
<feComposite in2="hardAlpha" operator="out"/>
<feColorMatrix type="matrix" values="0 0 0 0 0.501961 0 0 0 0 0.470588 0 0 0 0 0.439216 0 0 0 1 0"/>
<feBlend mode="normal" in2="effect1_dropShadow_19_911" result="effect2_dropShadow_19_911"/>
<feColorMatrix in="SourceAlpha" type="matrix" values="0 0 0 0 0 0 0 0 0 0 0 0 0 0 0 0 0 0 127 0" result="hardAlpha"/>
<feOffset dx="2" dy="2"/>
<feComposite in2="hardAlpha" operator="out"/>
<feColorMatrix type="matrix" values="0 0 0 0 0.501961 0 0 0 0 0.470588 0 0 0 0 0.439216 0 0 0 1 0"/>
<feBlend mode="normal" in2="effect2_dropShadow_19_911" result="effect3_dropShadow_19_911"/>
<feBlend mode="normal" in="SourceGraphic" in2="effect3_dropShadow_19_911" result="shape"/>
</filter>
</defs>
</svg>
