<svg width="64" height="28" viewBox="0 0 64 28" fill="none" xmlns="http://www.w3.org/2000/svg">
<path d="M0 2V26H2V28H62V26H64V2H62V0H2V2H0Z" fill="#A040A0"/>
<g style="mix-blend-mode:hard-light">
<rect x="2" width="60" height="2" fill="white" fill-opacity="0.5"/>
<rect y="2" width="2" height="2" fill="white" fill-opacity="0.5"/>
<rect x="62" y="2" width="2" height="2" fill="white" fill-opacity="0.5"/>
</g>
<rect x="62" y="28" width="60" height="2" transform="rotate(180 62 28)" fill="black" fill-opacity="0.5"/>
<rect x="64" y="26" width="2" height="2" transform="rotate(180 64 26)" fill="black" fill-opacity="0.5"/>
<rect x="2" y="26" width="2" height="2" transform="rotate(180 2 26)" fill="black" fill-opacity="0.5"/>
<path d="M0 2V26H2V28H62V26H64V2H62V0H2V2H0Z" fill="#B8B8D0"/>
<g style="mix-blend-mode:hard-light">
<rect x="2" width="60" height="2" fill="#D8D8C0"/>
<rect y="2" width="2" height="2" fill="#D8D8C0"/>
<rect x="62" y="2" width="2" height="2" fill="#D8D8C0"/>
</g>
<rect x="62" y="28" width="60" height="2" transform="rotate(180 62 28)" fill="#807870"/>
<rect x="64" y="26" width="2" height="2" transform="rotate(180 64 26)" fill="#807870"/>
<rect x="2" y="26" width="2" height="2" transform="rotate(180 2 26)" fill="#807870"/>
<g filter="url(#filter0_ddd_19_906)">
<path d="M21 8H23V20H21V8Z" fill="white"/>
<path d="M19 6H25V8H19V6Z" fill="white"/>
<path fill-rule="evenodd" clip-rule="evenodd" d="M49 6H47V18V20H49H55V18H49V6Z" fill="white"/>
<path d="M27 8H29V20H27V8Z" fill="white"/>
<path d="M27 12H33V14H27V12Z" fill="white"/>
<path d="M27 18H35V20H27V18Z" fill="white"/>
<path d="M27 6H35V8H27V6Z" fill="white"/>
<path d="M37 8H39V20H37V8Z" fill="white"/>
<path d="M37 12H43V14H37V12Z" fill="white"/>
<path d="M37 18H45V20H37V18Z" fill="white"/>
<path d="M37 6H45V8H37V6Z" fill="white"/>
<path d="M11 6H15V8H11V6Z" fill="white"/>
<path d="M9 8H11V12H9V8Z" fill="white"/>
<path d="M15 14H17V18H15V14Z" fill="white"/>
<path d="M15 8H17V10H15V8Z" fill="white"/>
<path d="M9 16H11V18H9V16Z" fill="white"/>
<path d="M11 12H15V14H11V12Z" fill="white"/>
<path d="M11 18H15V20H11V18Z" fill="white"/>
</g>
<defs>
<filter id="filter0_ddd_19_906" x="9" y="6" width="48" height="16" filterUnits="userSpaceOnUse" color-interpolation-filters="sRGB">
<feFlood flood-opacity="0" result="BackgroundImageFix"/>
<feColorMatrix in="SourceAlpha" type="matrix" values="0 0 0 0 0 0 0 0 0 0 0 0 0 0 0 0 0 0 127 0" result="hardAlpha"/>
<feOffset dy="2"/>
<feComposite in2="hardAlpha" operator="out"/>
<feColorMatrix type="matrix" values="0 0 0 0 0.501961 0 0 0 0 0.470588 0 0 0 0 0.439216 0 0 0 1 0"/>
<feBlend mode="normal" in2="BackgroundImageFix" result="effect1_dropShadow_19_906"/>
<feColorMatrix in="SourceAlpha" type="matrix" values="0 0 0 0 0 0 0 0 0 0 0 0 0 0 0 0 0 0 127 0" result="hardAlpha"/>
<feOffset dx="2"/>
<feComposite in2="hardAlpha" operator="out"/>
<feColorMatrix type="matrix" values="0 0 0 0 0.501961 0 0 0 0 0.470588 0 0 0 0 0.439216 0 0 0 1 0"/>
<feBlend mode="normal" in2="effect1_dropShadow_19_906" result="effect2_dropShadow_19_906"/>
<feColorMatrix in="SourceAlpha" type="matrix" values="0 0 0 0 0 0 0 0 0 0 0 0 0 0 0 0 0 0 127 0" result="hardAlpha"/>
<feOffset dx="2" dy="2"/>
<feComposite in2="hardAlpha" operator="out"/>
<feColorMatrix type="matrix" values="0 0 0 0 0.501961 0 0 0 0 0.470588 0 0 0 0 0.439216 0 0 0 1 0"/>
<feBlend mode="normal" in2="effect2_dropShadow_19_906" result="effect3_dropShadow_19_906"/>
<feBlend mode="normal" in="SourceGraphic" in2="effect3_dropShadow_19_906" result="shape"/>
</filter>
</defs>
</svg>
