<svg width="64" height="28" viewBox="0 0 64 28" fill="none" xmlns="http://www.w3.org/2000/svg">
<path d="M0 2V26H2V28H62V26H64V2H62V0H2V2H0Z" fill="#A8B820"/>
<g style="mix-blend-mode:hard-light">
<rect x="2" width="60" height="2" fill="white" fill-opacity="0.5"/>
<rect y="2" width="2" height="2" fill="white" fill-opacity="0.5"/>
<rect x="62" y="2" width="2" height="2" fill="white" fill-opacity="0.5"/>
</g>
<rect x="62" y="28" width="60" height="2" transform="rotate(180 62 28)" fill="black" fill-opacity="0.5"/>
<rect x="64" y="26" width="2" height="2" transform="rotate(180 64 26)" fill="black" fill-opacity="0.5"/>
<rect x="2" y="26" width="2" height="2" transform="rotate(180 2 26)" fill="black" fill-opacity="0.5"/>
<g filter="url(#filter0_ddd_19_912)">
<path d="M27 6H29V18H27V6Z" fill="white"/>
<path d="M33 6H35V18H33V6Z" fill="white"/>
<path d="M33 18V20H29L29 18H33Z" fill="white"/>
<path d="M17 6H19V20H17V6Z" fill="white"/>
<path d="M23 14H25V18H23V14Z" fill="white"/>
<path d="M23 18V20H19V18H23Z" fill="white"/>
<path d="M23 8H25V12H23V8Z" fill="white"/>
<path d="M19 6H23V8H19V6Z" fill="white"/>
<path d="M19 12H23V14H19V12Z" fill="white"/>
<path d="M37 8H39V18H37V8Z" fill="white"/>
<path d="M39 18H43V20H39V18Z" fill="white"/>
<path d="M39 6H43V8H39V6Z" fill="white"/>
<path d="M41 12H45V14H41V12Z" fill="white"/>
<path d="M43 8H45V10H43V8Z" fill="white"/>
<path d="M43 14H45V18H43V14Z" fill="white"/>
</g>
<defs>
<filter id="filter0_ddd_19_912" x="17" y="6" width="30" height="16" filterUnits="userSpaceOnUse" color-interpolation-filters="sRGB">
<feFlood flood-opacity="0" result="BackgroundImageFix"/>
<feColorMatrix in="SourceAlpha" type="matrix" values="0 0 0 0 0 0 0 0 0 0 0 0 0 0 0 0 0 0 127 0" result="hardAlpha"/>
<feOffset dy="2"/>
<feComposite in2="hardAlpha" operator="out"/>
<feColorMatrix type="matrix" values="0 0 0 0 0.501961 0 0 0 0 0.470588 0 0 0 0 0.439216 0 0 0 1 0"/>
<feBlend mode="normal" in2="BackgroundImageFix" result="effect1_dropShadow_19_912"/>
<feColorMatrix in="SourceAlpha" type="matrix" values="0 0 0 0 0 0 0 0 0 0 0 0 0 0 0 0 0 0 127 0" result="hardAlpha"/>
<feOffset dx="2"/>
<feComposite in2="hardAlpha" operator="out"/>
<feColorMatrix type="matrix" values="0 0 0 0 0.501961 0 0 0 0 0.470588 0 0 0 0 0.439216 0 0 0 1 0"/>
<feBlend mode="normal" in2="effect1_dropShadow_19_912" result="effect2_dropShadow_19_912"/>
<feColorMatrix in="SourceAlpha" type="matrix" values="0 0 0 0 0 0 0 0 0 0 0 0 0 0 0 0 0 0 127 0" result="hardAlpha"/>
<feOffset dx="2" dy="2"/>
<feComposite in2="hardAlpha" operator="out"/>
<feColorMatrix type="matrix" values="0 0 0 0 0.501961 0 0 0 0 0.470588 0 0 0 0 0.439216 0 0 0 1 0"/>
<feBlend mode="normal" in2="effect2_dropShadow_19_912" result="effect3_dropShadow_19_912"/>
<feBlend mode="normal" in="SourceGraphic" in2="effect3_dropShadow_19_912" result="shape"/>
</filter>
</defs>
</svg>
