<svg width="64" height="28" viewBox="0 0 64 28" fill="none" xmlns="http://www.w3.org/2000/svg">
<path d="M0 2V26H2V28H62V26H64V2H62V0H2V2H0Z" fill="#E0C068"/>
<g style="mix-blend-mode:hard-light">
<rect x="2" width="60" height="2" fill="#F8F878"/>
<rect y="2" width="2" height="2" fill="#F8F878"/>
<rect x="62" y="2" width="2" height="2" fill="#F8F878"/>
</g>
<rect x="62" y="28" width="60" height="2" transform="rotate(180 62 28)" fill="black" fill-opacity="0.5"/>
<rect x="64" y="26" width="2" height="2" transform="rotate(180 64 26)" fill="black" fill-opacity="0.5"/>
<rect x="2" y="26" width="2" height="2" transform="rotate(180 2 26)" fill="black" fill-opacity="0.5"/>
<g filter="url(#filter0_ddd_19_915)">
<path d="M33 6H35V18H33V6Z" fill="white"/>
<path d="M39 6H41V18H39V6Z" fill="white"/>
<path d="M39 18V20H35L35 18H39Z" fill="white"/>
<path d="M13 6H15V20H13V6Z" fill="white"/>
<path d="M19 14H21V20H19V14Z" fill="white"/>
<path d="M19 8H21V12H19V8Z" fill="white"/>
<path d="M15 6H19V8H15V6Z" fill="white"/>
<path d="M15 12H19V14H15V12Z" fill="white"/>
<path d="M53 6H55V20H53V6Z" fill="white"/>
<path d="M53 18H59V20H53V18Z" fill="white"/>
<path d="M54 6H59V8H54V6Z" fill="white"/>
<path d="M59 8H61V18H59V8Z" fill="white"/>
<path d="M23 8H25V18H23V8Z" fill="white"/>
<path d="M25 18H29V20H25V18Z" fill="white"/>
<path d="M25 6H29V8H25V6Z" fill="white"/>
<path d="M29 8H31V18H29V8Z" fill="white"/>
<path d="M43 6H45V20H43V6Z" fill="white"/>
<path d="M49 6H51V20H49V6Z" fill="white"/>
<path d="M45 8H47V12H45V8Z" fill="white"/>
<path d="M47 12H49V16H47V12Z" fill="white"/>
<path d="M3 8H5V18H3V8Z" fill="white"/>
<path d="M5 18H9V20H5V18Z" fill="white"/>
<path d="M5 6H9V8H5V6Z" fill="white"/>
<path d="M7 12H11V14H7V12Z" fill="white"/>
<path d="M9 8H11V10H9V8Z" fill="white"/>
<path d="M9 14H11V18H9V14Z" fill="white"/>
</g>
<defs>
<filter id="filter0_ddd_19_915" x="3" y="6" width="60" height="16" filterUnits="userSpaceOnUse" color-interpolation-filters="sRGB">
<feFlood flood-opacity="0" result="BackgroundImageFix"/>
<feColorMatrix in="SourceAlpha" type="matrix" values="0 0 0 0 0 0 0 0 0 0 0 0 0 0 0 0 0 0 127 0" result="hardAlpha"/>
<feOffset dy="2"/>
<feComposite in2="hardAlpha" operator="out"/>
<feColorMatrix type="matrix" values="0 0 0 0 0.501961 0 0 0 0 0.470588 0 0 0 0 0.439216 0 0 0 1 0"/>
<feBlend mode="normal" in2="BackgroundImageFix" result="effect1_dropShadow_19_915"/>
<feColorMatrix in="SourceAlpha" type="matrix" values="0 0 0 0 0 0 0 0 0 0 0 0 0 0 0 0 0 0 127 0" result="hardAlpha"/>
<feOffset dx="2"/>
<feComposite in2="hardAlpha" operator="out"/>
<feColorMatrix type="matrix" values="0 0 0 0 0.501961 0 0 0 0 0.470588 0 0 0 0 0.439216 0 0 0 1 0"/>
<feBlend mode="normal" in2="effect1_dropShadow_19_915" result="effect2_dropShadow_19_915"/>
<feColorMatrix in="SourceAlpha" type="matrix" values="0 0 0 0 0 0 0 0 0 0 0 0 0 0 0 0 0 0 127 0" result="hardAlpha"/>
<feOffset dx="2" dy="2"/>
<feComposite in2="hardAlpha" operator="out"/>
<feColorMatrix type="matrix" values="0 0 0 0 0.501961 0 0 0 0 0.470588 0 0 0 0 0.439216 0 0 0 1 0"/>
<feBlend mode="normal" in2="effect2_dropShadow_19_915" result="effect3_dropShadow_19_915"/>
<feBlend mode="normal" in="SourceGraphic" in2="effect3_dropShadow_19_915" result="shape"/>
</filter>
</defs>
</svg>
